<svg width="124" height="124" viewBox="0 0 124 124" fill="none" xmlns="http://www.w3.org/2000/svg">
<path d="M110.195 41.3333H95.0667L91.8427 22.072C91.1931 19.1577 89.7664 16.4738 87.7142 14.3051C85.6619 12.1364 83.0607 10.5639 80.1867 9.75466C77.2981 8.83028 74.2909 8.32908 71.2587 8.26666H52.7414C49.7092 8.32908 46.702 8.83028 43.8134 9.75466C40.9394 10.5639 38.3381 12.1364 36.2859 14.3051C34.2337 16.4738 32.807 19.1577 32.1574 22.072L28.9334 41.3333H13.8054C13.1543 41.3294 12.5115 41.4793 11.9293 41.7709C11.3471 42.0625 10.8421 42.4874 10.4553 43.0112C10.0685 43.535 9.81096 44.1427 9.70357 44.7849C9.59619 45.4271 9.64204 46.0856 9.83738 46.7067L25.3787 98.7867C26.1699 101.303 27.7427 103.501 29.8686 105.062C31.9945 106.623 34.5627 107.465 37.2 107.467H86.8C89.4233 107.448 91.9729 106.597 94.0822 105.037C96.1915 103.478 97.7518 101.289 98.5387 98.7867L114.08 46.7067C114.273 46.0922 114.32 45.4411 114.217 44.8052C114.114 44.1693 113.864 43.5663 113.487 43.0444C113.109 42.5224 112.615 42.0958 112.043 41.7987C111.472 41.5017 110.839 41.3423 110.195 41.3333ZM37.3654 41.3333L40.3414 23.3947C40.6676 21.93 41.4244 20.5964 42.5145 19.5652C43.6046 18.534 44.9782 17.8524 46.4587 17.608C48.4923 16.9632 50.6086 16.6077 52.7414 16.5333H71.2587C73.4246 16.605 75.5464 16.9632 77.6241 17.608C79.1046 17.8524 80.4781 18.534 81.5682 19.5652C82.6583 20.5964 83.4151 21.93 83.7414 23.3947L86.6347 41.3333H37.0347H37.3654Z" fill="#00456A"/>
</svg>
