<svg width="140" height="140" viewBox="0 0 140 140" fill="none" xmlns="http://www.w3.org/2000/svg">
<g clip-path="url(#clip0_9_298)">
<path fill-rule="evenodd" clip-rule="evenodd" d="M16.4937 4.47144C18.0247 2.94271 19.8632 1.75682 21.8872 0.992349C23.9112 0.227876 26.0746 -0.0977199 28.2339 0.0371369C30.3933 0.171994 32.4993 0.764224 34.4125 1.77458C36.3257 2.78494 38.0023 4.19035 39.3312 5.89769L55.0375 26.0752C57.9162 29.7764 58.9312 34.5977 57.7937 39.1477L53.0075 58.3102C52.7617 59.3028 52.776 60.342 53.0488 61.3275C53.3216 62.313 53.8438 63.2115 54.565 63.9364L76.0637 85.4352C76.7895 86.1578 77.6895 86.6809 78.6767 86.9538C79.6639 87.2266 80.7048 87.24 81.6987 86.9927L100.852 82.2064C103.098 81.6483 105.441 81.6063 107.705 82.0837C109.969 82.5611 112.096 83.5454 113.925 84.9627L134.102 100.66C141.356 106.304 142.021 117.023 135.529 123.506L126.481 132.554C120.006 139.029 110.329 141.873 101.307 138.696C78.2133 130.582 57.2472 117.362 39.97 100.021C22.6307 82.7467 9.41105 61.7837 1.29497 38.6927C-1.87253 29.6802 0.97122 19.9939 7.44622 13.5189L16.4937 4.47144Z" fill="#00456A"/>
</g>
<defs>
<clipPath id="clip0_9_298">
<rect width="140" height="140" fill="white"/>
</clipPath>
</defs>
</svg>
