<svg width="178" height="178" viewBox="0 0 178 178" fill="none" xmlns="http://www.w3.org/2000/svg">
<path fill-rule="evenodd" clip-rule="evenodd" d="M42.0896 63.7388C25.454 69.4126 14.8334 78.0456 14.8334 87.7169C14.8334 96.6688 23.9559 104.746 38.5296 110.397L28.6061 126.936C27.8965 128.199 27.7072 129.688 28.0786 131.088C28.45 132.488 29.3527 133.688 30.5949 134.433C31.837 135.177 33.3207 135.408 34.7304 135.076C36.1401 134.744 37.3648 133.875 38.144 132.654L49.269 114.113L49.395 113.89C59.3853 116.531 70.9775 118.192 83.4375 118.585V140.917C83.4375 142.392 84.0236 143.807 85.0668 144.85C86.1099 145.893 87.5248 146.479 89 146.479C90.4753 146.479 91.8901 145.893 92.9333 144.85C93.9765 143.807 94.5625 142.392 94.5625 140.917V118.592C107.023 118.207 118.615 116.531 128.605 113.898L128.731 114.12L139.856 132.662C140.22 133.31 140.711 133.879 141.299 134.334C141.887 134.789 142.56 135.122 143.279 135.313C143.997 135.504 144.747 135.548 145.483 135.444C146.22 135.34 146.928 135.089 147.565 134.707C148.203 134.325 148.758 133.818 149.196 133.218C149.635 132.618 149.949 131.935 150.119 131.212C150.29 130.488 150.314 129.737 150.189 129.004C150.064 128.271 149.794 127.57 149.394 126.944L139.47 110.404C154.044 104.746 163.167 96.6763 163.167 87.7095C163.167 78.0456 152.546 69.4126 135.91 63.7388C134.991 65.8897 133.456 68.0702 130.956 69.8057C125.112 73.87 113.475 77.875 89 77.875C64.525 77.875 52.8957 73.87 47.044 69.8057C44.8524 68.2922 43.1346 66.1887 42.0896 63.7388ZM96.4167 96.4167C96.4167 98.3837 95.6353 100.27 94.2444 101.661C92.8535 103.052 90.9671 103.833 89 103.833C87.033 103.833 85.1466 103.052 83.7557 101.661C82.3648 100.27 81.5834 98.3837 81.5834 96.4167C81.5834 94.4496 82.3648 92.5632 83.7557 91.1723C85.1466 89.7814 87.033 89 89 89C90.9671 89 92.8535 89.7814 94.2444 91.1723C95.6353 92.5632 96.4167 94.4496 96.4167 96.4167ZM51.9167 96.4167C53.8837 96.4167 55.7702 95.6353 57.1611 94.2444C58.552 92.8535 59.3334 90.967 59.3334 89C59.3334 87.033 58.552 85.1465 57.1611 83.7556C55.7702 82.3647 53.8837 81.5833 51.9167 81.5833C49.9497 81.5833 48.0632 82.3647 46.6723 83.7556C45.2814 85.1465 44.5 87.033 44.5 89C44.5 90.967 45.2814 92.8535 46.6723 94.2444C48.0632 95.6353 49.9497 96.4167 51.9167 96.4167ZM133.5 89C133.5 90.967 132.719 92.8535 131.328 94.2444C129.937 95.6353 128.05 96.4167 126.083 96.4167C124.116 96.4167 122.23 95.6353 120.839 94.2444C119.448 92.8535 118.667 90.967 118.667 89C118.667 87.033 119.448 85.1465 120.839 83.7556C122.23 82.3647 124.116 81.5833 126.083 81.5833C128.05 81.5833 129.937 82.3647 131.328 83.7556C132.719 85.1465 133.5 87.033 133.5 89Z" fill="#00456A"/>
<path opacity="0.5" d="M52.3246 59.3704C53.608 51.0961 57.8087 43.5537 64.1676 38.1061C70.5265 32.6586 78.6242 29.6651 86.9975 29.6667H91.0173C99.3893 29.6669 107.485 32.6611 113.843 38.1085C120.2 43.556 124.4 51.0974 125.683 59.3704C125.447 59.8917 125.076 60.34 124.607 60.6684C121.537 62.8044 112.667 66.75 89.0074 66.75C65.3483 66.75 56.4779 62.8044 53.4074 60.6684C52.939 60.34 52.5676 59.8917 52.332 59.3704" fill="#00456A"/>
</svg>
